<svg xmlns="http://www.w3.org/2000/svg" width="214" height="36" viewBox="0 0 214 36" fill="none"><g clip-path="url(#clip0)"><path d="M61.3692 22.2311H55.6815V34.879H50.6951V22.2311H46.5398V17.5824H49.5005C50.3056 17.5824 50.6951 17.1928 50.6951 16.3877V15.5826C50.6951 13.2712 51.3444 11.5311 52.6689 10.3625C53.9934 9.19377 55.8633 8.59644 58.3046 8.59644C59.1357 8.59644 60.1485 8.70032 61.3692 8.90809V13.7646C60.0706 13.5569 59.1097 13.453 58.5124 13.453C57.6294 13.453 56.9281 13.7127 56.4347 14.2061C55.9413 14.7256 55.6815 15.4008 55.6815 16.2319V17.5564H61.3692V22.2311Z" fill="white"></path><path d="M71.7575 35.2165C69.3682 35.2165 67.3425 34.3594 65.7063 32.6454C64.0702 30.9313 63.2651 28.8017 63.2651 26.2306C63.2651 23.6335 64.1481 21.4779 65.8881 19.7898C67.6542 18.1017 69.8617 17.2446 72.5367 17.2446C75.1338 17.2446 77.2893 18.0757 79.0034 19.7119C80.7175 21.348 81.5745 23.4257 81.5745 25.9189V34.9048H76.9777V32.3337C75.809 34.2556 74.043 35.2165 71.7575 35.2165ZM75.3675 29.1912C76.1207 28.4121 76.5102 27.4252 76.5102 26.2306C76.5102 25.0359 76.1207 24.049 75.3675 23.2699C74.6143 22.4907 73.6274 22.1012 72.4328 22.1012C71.2641 22.1012 70.2772 22.4907 69.4981 23.2699C68.719 24.049 68.3294 25.0359 68.3294 26.2046C68.3294 27.3733 68.719 28.3602 69.4981 29.1393C70.2772 29.9184 71.2641 30.308 72.4328 30.308C73.6274 30.3599 74.6143 29.9704 75.3675 29.1912Z" fill="white"></path><path d="M100.845 28.1264C100.507 30.2301 99.5463 31.9441 97.9361 33.2427C96.3259 34.5412 94.4301 35.2165 92.1966 35.2165C89.6255 35.2165 87.4958 34.3594 85.8077 32.6713C84.1196 30.9832 83.2886 28.8276 83.2886 26.2306C83.2886 23.6335 84.1456 21.4779 85.8077 19.7898C87.4958 18.1017 89.6255 17.2446 92.1966 17.2446C94.4041 17.2446 96.3259 17.8939 97.9361 19.2184C99.5463 20.517 100.507 22.231 100.845 24.3347H95.6507C95.417 23.6594 95.0014 23.14 94.3522 22.7245C93.7029 22.309 92.9757 22.1012 92.1966 22.1012C91.1058 22.1012 90.1968 22.4907 89.4696 23.2699C88.7425 24.049 88.3789 25.0359 88.3789 26.2046C88.3789 27.3733 88.7425 28.3602 89.4696 29.1393C90.1968 29.9184 91.1058 30.308 92.1966 30.308C93.0017 30.308 93.7289 30.1002 94.3522 29.6847C95.0014 29.2691 95.417 28.7238 95.6507 28.0745H100.845V28.1264Z" fill="white"></path><path d="M120.271 29.3471C119.674 31.3468 118.583 32.8272 117.051 33.7881C115.492 34.749 113.623 35.2165 111.415 35.2165C108.818 35.2165 106.688 34.3854 105.026 32.6973C103.364 31.0092 102.533 28.8536 102.533 26.2306C102.533 23.5815 103.39 21.4259 105.104 19.7638C106.818 18.0757 109.026 17.2446 111.675 17.2446C114.246 17.2446 116.324 18.0238 117.934 19.582C119.544 21.1403 120.323 23.114 120.323 25.5034C120.323 26.3604 120.245 27.1915 120.063 27.9966H108.065C107.727 27.9966 107.571 28.1524 107.571 28.49C107.571 29.1653 107.961 29.7107 108.766 30.1781C109.571 30.6456 110.532 30.8793 111.623 30.8793C113.675 30.8793 114.921 30.3599 115.389 29.3471H120.271ZM114.48 22.1272C113.778 21.6597 112.895 21.4 111.805 21.4C110.714 21.4 109.779 21.6597 109.026 22.1531C108.273 22.6466 107.753 23.3478 107.545 24.2308H115.103C115.389 24.2308 115.544 24.1009 115.544 23.8412C115.518 23.166 115.181 22.5946 114.48 22.1272Z" fill="white"></path><path d="M137.646 32.6973C135.958 34.3854 133.776 35.2165 131.101 35.2165C128.426 35.2165 126.244 34.3854 124.556 32.6973C122.868 31.0092 122.011 28.8536 122.011 26.2306C122.011 23.6075 122.868 21.4259 124.556 19.7638C126.244 18.0757 128.426 17.2446 131.101 17.2446C133.776 17.2446 135.958 18.0757 137.646 19.7638C139.334 21.4519 140.191 23.6075 140.191 26.2306C140.191 28.8536 139.334 31.0352 137.646 32.6973ZM128.192 29.1912C128.945 29.9704 129.906 30.3599 131.101 30.3599C132.296 30.3599 133.283 29.9704 134.01 29.1912C134.763 28.4121 135.126 27.4252 135.126 26.2306C135.126 25.0359 134.763 24.049 134.01 23.2699C133.257 22.4907 132.296 22.1012 131.101 22.1012C129.906 22.1012 128.919 22.4907 128.192 23.2699C127.439 24.049 127.075 25.0359 127.075 26.2306C127.075 27.4252 127.439 28.4121 128.192 29.1912Z" fill="white"></path><path d="M141.957 25.4514C141.957 22.9062 142.736 20.8805 144.32 19.4262C145.904 17.9718 147.93 17.2186 150.449 17.2186C152.968 17.2186 154.994 17.9458 156.578 19.4262C158.163 20.8805 158.942 22.9062 158.942 25.4514V34.8788H153.955V25.5553C153.955 24.4645 153.618 23.6075 152.968 23.0101C152.319 22.4128 151.488 22.1012 150.449 22.1012C149.41 22.1012 148.579 22.4128 147.93 23.0101C147.281 23.6334 146.943 24.4645 146.943 25.5553V34.8788H141.957V25.4514Z" fill="white"></path><path d="M161.954 8.90796H166.941V34.8788H161.954V8.90796Z" fill="white"></path><path d="M175.174 13.8685C174.55 14.4659 173.823 14.7775 172.992 14.7775C172.135 14.7775 171.434 14.4659 170.81 13.8685C170.187 13.2712 169.901 12.544 169.901 11.687C169.901 10.8559 170.213 10.1287 170.81 9.50542C171.408 8.90809 172.135 8.59644 172.992 8.59644C173.823 8.59644 174.55 8.90809 175.174 9.50542C175.771 10.1287 176.083 10.8559 176.083 11.687C176.083 12.518 175.771 13.2452 175.174 13.8685ZM170.473 17.5824H175.459V34.9049H170.473V17.5824Z" fill="white"></path><path d="M190.834 31.9961C190.392 33.1648 189.873 33.9699 189.25 34.4114C188.626 34.8529 187.847 35.0607 186.86 35.0607C185.874 35.0607 185.068 34.8269 184.445 34.3854C183.822 33.918 183.328 33.1388 182.887 31.9961L177.459 17.5823H182.783L186.705 29.399C186.757 29.5029 186.809 29.5548 186.912 29.5548C186.99 29.5548 187.068 29.5029 187.12 29.399L190.99 17.5823H196.21L190.834 31.9961Z" fill="white"></path><path d="M213.948 29.3471C213.351 31.3468 212.26 32.8272 210.728 33.7881C209.169 34.749 207.3 35.2165 205.092 35.2165C202.495 35.2165 200.365 34.3854 198.703 32.6973C197.041 31.0092 196.21 28.8536 196.21 26.2306C196.21 23.5815 197.067 21.4259 198.781 19.7638C200.495 18.0757 202.703 17.2446 205.352 17.2446C207.923 17.2446 210.026 18.0238 211.611 19.582C213.221 21.1403 214 23.114 214 25.5034C214 26.3604 213.922 27.1915 213.74 27.9966H201.742C201.404 27.9966 201.248 28.1524 201.248 28.49C201.248 29.1653 201.638 29.7107 202.443 30.1781C203.248 30.6456 204.183 30.8793 205.3 30.8793C207.351 30.8793 208.598 30.3599 209.066 29.3471H213.948ZM208.131 22.1272C207.429 21.6597 206.546 21.4 205.456 21.4C204.365 21.4 203.43 21.6597 202.677 22.1531C201.924 22.6466 201.404 23.3478 201.196 24.2308H208.754C209.04 24.2308 209.195 24.1009 209.195 23.8412C209.169 23.166 208.832 22.5946 208.131 22.1272Z" fill="white"></path><path d="M17.4005 34.801C27.0105 34.801 34.801 27.0105 34.801 17.4005C34.801 7.79046 27.0105 0 17.4005 0C7.79046 0 0 7.79046 0 17.4005C0 27.0105 7.79046 34.801 17.4005 34.801Z" fill="white"></path><path d="M17.5044 0C16.5694 0 15.6605 0.0779126 14.7774 0.207767C15.6605 2.12961 16.1539 3.60995 14.8034 6.80437C13.0114 10.9857 11.1935 11.6869 12.3881 12.8296C13.5568 13.9464 15.8942 14.4138 15.8942 14.4138C15.8942 14.4138 15.8422 15.141 15.3488 15.8422C14.8554 16.5434 14.9333 17.5823 15.9202 18.1796C16.6473 18.6211 16.7772 18.699 16.8032 18.699C16.8032 18.699 16.4136 19.0626 16.1799 19.8158C15.9202 20.6468 16.4655 21.4519 17.3745 21.7117C18.2835 21.9714 18.6471 22.0752 18.8549 22.335C19.0886 22.6726 18.9068 22.7245 18.8549 24.049C18.777 25.3735 18.5172 26.6721 20.2833 27.659C22.0493 28.6718 25.0879 27.7888 27.633 26.2306C29.477 25.0879 33.6063 23.7114 37.3461 24.6723C37.6578 23.2699 37.8136 21.8155 37.8136 20.3352C37.8136 9.11578 28.7238 0 17.5044 0Z" fill="url(#paint0_linear)"></path></g><defs><linearGradient id="paint0_linear" x1="12.007" y1="14.0518" x2="37.8209" y2="14.0518" gradientUnits="userSpaceOnUse"><stop stop-color="#F9B233"></stop><stop offset="0.4139" stop-color="#F4623A"></stop><stop offset="1" stop-color="#414381"></stop></linearGradient><clipPath id="clip0"><rect width="214" height="35.2165" fill="white"></rect></clipPath></defs></svg>